<svg width="48" height="48" viewBox="0 0 48 48" fill="none" xmlns="http://www.w3.org/2000/svg">
<path d="M39.7068 38.2931L25.4137 24L39.7068 9.70692C40.0812 9.31947 40.0812 8.70509 39.7068 8.31752C39.3231 7.9203 38.6901 7.90932 38.2929 8.29298L23.9998 22.5861L9.70679 8.2931C9.31934 7.91884 8.70496 7.91884 8.31738 8.2931C7.92017 8.67677 7.90918 9.30983 8.29285 9.70705L22.5858 24L8.29285 38.293C8.10535 38.4805 8 38.7348 8 38.9999C7.99988 39.5521 8.44763 39.9999 8.99988 40C9.26514 40.0003 9.51953 39.8948 9.70679 39.7069L23.9998 25.414L38.2929 39.707C38.4801 39.8949 38.7346 40.0004 38.9999 40C39.2649 39.9999 39.519 39.8947 39.7065 39.7073C40.0972 39.3168 40.0973 38.6836 39.7068 38.2931Z" fill="black"/>
</svg>
